<svg width="40" height="41" viewBox="0 0 40 41" fill="none" xmlns="http://www.w3.org/2000/svg">
<path d="M11.0988 25.5699C11.0988 26.8557 11.4745 28.0865 12.2259 29.2621C12.9773 30.4377 13.9613 31.3929 15.1778 32.1277C16.4301 32.8625 17.7898 33.2298 19.2568 33.2298C20.867 33.2298 22.2982 32.8625 23.5505 32.1277C24.8029 31.3929 25.7868 30.4377 26.5024 29.2621C27.2538 28.0865 27.6295 26.8557 27.6295 25.5699V0H35.3045V25.7352C35.3045 28.711 34.5889 31.3562 33.1577 33.6707C31.7264 35.9485 29.7943 37.7487 27.3612 39.0712C24.9281 40.3571 22.2266 41 19.2568 41C16.3228 41 13.6393 40.3571 11.2062 39.0712C8.80885 37.7487 6.89458 35.9485 5.46335 33.6707C4.03212 31.3562 3.3165 28.711 3.3165 25.7352V0H11.0988V12.7849V25.5699Z" fill="white"/>
<path d="M3.09292 0.0332399H9.46068V8.90648H14.282V13.9969H9.46068V29.4083L3.3165 25.7352L3.09292 13.9969H0V8.90648H3.09292V0.0332399Z" fill="white"/>
<path d="M3.09292 0.0332399H9.46068V8.90648H14.282V13.9969H9.46068V29.4083L3.3165 25.7352L3.09292 13.9969H0V8.90648H3.09292V0.0332399Z" fill="white" fill-opacity="0.2"/>
<path d="M16.5359 26.0459C16.5359 25.0807 16.8695 24.2712 17.5366 23.6174C18.234 22.9636 18.9921 22.6367 19.8108 22.6367C20.5689 22.6367 21.2814 22.9636 21.9485 23.6174C22.646 24.2712 22.9947 25.0807 22.9947 26.0459C22.9947 27.0733 22.646 27.8983 21.9485 28.521C21.2814 29.1126 20.5689 29.4083 19.8108 29.4083C18.9921 29.4083 18.234 29.1126 17.5366 28.521C16.8695 27.8983 16.5359 27.0733 16.5359 26.0459Z" fill="#F7430A"/>
<path d="M28.8109 0.0332399H35.1787V8.90648H40V13.9969H35.1787L35.3045 25.7352L28.8109 29.4083V13.9969H25.718V8.90648H28.8109V0.0332399Z" fill="white"/>
</svg>
