<svg width="511" height="484" viewBox="0 0 511 484" fill="none" xmlns="http://www.w3.org/2000/svg">
<path fill-rule="evenodd" clip-rule="evenodd" d="M254.088 85.445C283.769 96.1455 313.867 100.198 343.122 112.092C377.017 125.874 413.418 134.686 439.619 160.88C469.979 191.233 494.999 228.914 502.917 271.846C511.493 318.357 518.3 377.22 485.618 410.325C450.845 445.549 391.419 422.348 343.874 432.949C312.695 439.901 285.275 455.038 254.088 461.948C215.565 470.483 175.929 492.561 139.003 478.343C101.639 463.956 83.4128 421.451 60.7275 387.495C36.2976 350.929 2.4879 316.292 1.04521 271.846C-0.404264 227.192 33.34 191.348 53.071 151.618C73.8295 109.819 77.0356 45.9916 120.28 31.7557C166.656 16.4894 208.131 68.8771 254.088 85.445Z" fill="white" fill-opacity="0.07" stroke="black"/>
<path fill-rule="evenodd" clip-rule="evenodd" d="M404.738 157.49C409.346 152.082 412.464 145.453 411.943 138.026C410.442 116.625 380.651 121.333 374.857 132.134C369.062 142.935 369.75 170.333 377.24 172.264C380.226 173.034 386.589 171.148 393.065 167.245L389 196H413L404.738 157.49Z" fill="#B28B67"/>
<path fill-rule="evenodd" clip-rule="evenodd" d="M364.224 117.161C364.721 115.414 366.058 113.918 367.86 113.474C368.296 113.367 368.748 113.323 369.197 113.341C369.358 113.348 369.404 113.394 369.479 113.282C369.535 113.198 369.536 112.994 369.559 112.895C369.631 112.59 369.72 112.288 369.831 111.994C370.208 110.992 370.841 110.105 371.605 109.358C373.033 107.96 374.963 106.995 376.968 106.82C378.066 106.725 379.155 106.903 380.193 107.26C380.73 107.445 381.251 107.675 381.758 107.929C381.911 108.006 382.406 108.381 382.559 108.357C382.729 108.33 383.069 107.909 383.207 107.804C384.908 106.498 387.009 105.985 389.128 106C391.52 106.018 393.823 106.138 395.818 107.596C396.241 107.905 396.643 108.243 397.026 108.599C397.228 108.786 397.423 108.98 397.609 109.183C397.722 109.305 397.831 109.43 397.936 109.558C398.115 109.776 398.086 109.847 398.337 109.696C399.297 109.112 400.409 108.839 401.53 108.977C402.195 109.059 402.843 109.259 403.458 109.522C403.667 109.611 404.151 109.968 404.374 109.972C404.596 109.975 405.073 109.644 405.301 109.56C406.533 109.106 407.86 108.993 409.154 109.204C410.489 109.42 411.8 109.953 412.931 110.689C413.475 111.043 413.95 111.435 414.331 111.962C414.496 112.189 414.644 112.429 414.831 112.64C414.94 112.763 415.156 112.89 415.215 113.046C415.18 112.953 416.675 112.376 416.816 112.339C417.568 112.143 418.333 112.183 419.069 112.425C420.453 112.881 421.643 113.902 422.621 114.949C423.123 115.487 423.563 116.081 423.936 116.715C424.115 117.018 424.279 117.33 424.428 117.649C424.501 117.803 424.549 117.997 424.644 118.136C424.768 118.315 424.85 118.318 425.073 118.396C426.206 118.793 427.238 119.465 428.025 120.372C428.82 121.291 429.336 122.421 429.552 123.612C429.565 123.682 429.573 123.973 429.614 124.011C429.67 124.063 429.898 124.04 429.984 124.05C430.282 124.085 430.579 124.137 430.871 124.206C431.41 124.334 431.934 124.521 432.43 124.767C434.364 125.724 435.747 127.518 436.424 129.536C437.135 131.655 437.122 134.082 436.273 136.161C436.136 136.497 435.973 136.823 435.781 137.131C435.664 137.32 435.626 137.321 435.702 137.519C435.787 137.74 435.943 137.955 436.044 138.171C436.374 138.875 436.604 139.622 436.75 140.385C436.989 141.637 437.108 142.953 436.872 144.214C436.762 144.8 436.572 145.372 436.281 145.894C436.132 146.16 435.958 146.412 435.762 146.645C435.661 146.766 435.553 146.882 435.439 146.993C435.375 147.056 435.29 147.112 435.235 147.182C435.101 147.355 435.073 147.213 435.142 147.466C435.239 147.82 435.458 148.17 435.592 148.514C435.731 148.869 435.856 149.229 435.97 149.593C436.202 150.329 436.398 151.078 436.521 151.84C436.756 153.303 436.715 154.862 436.023 156.205C435.727 156.78 435.302 157.283 434.787 157.675C434.535 157.867 434.262 158.033 433.976 158.168C433.829 158.238 433.641 158.268 433.574 158.41C433.501 158.563 433.609 158.867 433.633 159.038C433.846 160.527 433.953 162.089 433.51 163.548C433.103 164.891 432.206 166.077 431.041 166.862C428.781 168.386 425.735 168.3 423.361 167.08C422.742 166.762 422.163 166.368 421.647 165.902C420.331 167.673 417.625 167.617 415.703 167.112C413.308 166.484 411.386 164.818 410.279 162.63C408.765 164.473 405.588 163.875 404.538 161.876C404.281 161.387 404.129 160.847 404.054 160.302C404.014 160.015 404.039 159.725 404.01 159.441C403.972 159.078 403.73 158.725 403.59 158.374C403.319 157.691 403.151 156.986 403.143 156.249C403.14 155.864 403.188 155.49 403.225 155.108C403.258 154.765 403.163 154.445 403.108 154.106C403.723 154.207 404.471 154.041 405.05 153.863C405.617 153.688 406.149 153.228 406.55 152.808C407.481 151.831 408.049 150.552 408.438 149.278C409.292 146.483 408.942 143.129 406.13 141.595C404.82 140.881 400.897 140.883 399.337 141.236C397.696 141.607 395.837 145.227 395.745 145.567C395.689 145.777 395.717 146.038 395.524 146.178C395.099 146.487 394.398 145.951 394.084 145.687C393.543 145.231 393.157 144.625 392.823 144.01C392.095 142.67 391.508 141.233 391.093 139.767C390.773 138.636 390.569 137.47 390.151 136.368C389.735 135.272 389.08 134.291 388.06 133.67C386.952 132.995 385.681 132.639 384.464 132.214C383.257 131.793 382.071 131.279 381.136 130.386C380.93 130.19 380.731 129.981 380.565 129.75C380.435 129.567 380.305 129.218 380.106 129.102C379.797 128.922 379.345 129.39 379.077 129.56C377.757 130.399 376.655 131.569 375.767 132.846C374.883 134.117 374.158 135.34 373.569 136.759C373.132 137.811 372.859 139.159 372.091 140.021C371.748 140.407 369.197 140.64 368.371 140.303C367.545 139.967 366.619 139.094 366.342 138.547C366.058 137.987 365.99 137.372 366.111 136.759C366.183 136.398 366.328 136.061 366.408 135.707C366.475 135.409 366.536 135.128 366.681 134.856C366.955 134.339 367.424 133.968 367.99 133.812C367.401 133.27 366.914 132.621 366.576 131.895C366.226 131.141 365.928 130.224 365.844 129.397C365.776 128.725 365.881 128.028 366.249 127.451C366.635 126.845 367.319 126.45 367.911 126.072C367.007 125.365 366.233 124.505 365.598 123.553C364.361 121.701 363.596 119.368 364.224 117.161Z" fill="#191847"/>
<path fill-rule="evenodd" clip-rule="evenodd" d="M480 321H365C356.163 321 349 328.164 349 337V429C349 437.837 356.163 445 365 445H480C488.837 445 496 437.837 496 429V337C496 328.164 488.837 321 480 321ZM464 349C466.209 349 468 350.791 468 353V413C468 415.209 466.209 417 464 417H381C378.791 417 377 415.209 377 413V353C377 350.791 378.791 349 381 349H464Z" fill="#C5CFD6"/>
<path fill-rule="evenodd" clip-rule="evenodd" d="M277.491 441.66C290.303 413.302 299.57 388.609 303.289 375.58C309.657 353.273 314.502 333.644 315.727 326.313C318.647 308.833 293.265 307.815 289.91 316.502C284.832 329.651 275.967 372.853 265.315 438.108L277.491 441.66ZM426.112 352.664C414.356 348.017 373.188 333.475 353.333 329.362C347.627 328.179 342.097 327.081 336.898 326.089C321.444 323.138 313.437 351.018 328.321 353.16C365.388 358.495 417.937 364.004 422.434 364.622C428.737 365.488 433.5 355.584 426.112 352.664Z" fill="#B28B67"/>
<path fill-rule="evenodd" clip-rule="evenodd" d="M327.413 318.417L391 286.047V279H383.438C321.92 294.676 290.485 304.722 289.131 309.138C289.117 309.186 289.103 309.233 289.091 309.281C289.06 309.322 289.03 309.362 289 309.404C276.808 326.17 269.507 408.027 267.111 414.156L290.472 417.642C299.409 384.504 328 361.418 327.241 321.729C327.446 320.565 327.497 319.461 327.413 318.417Z" fill="#1F28CF"/>
<path fill-rule="evenodd" clip-rule="evenodd" d="M385.717 337.641C391.535 336.476 396.893 335.437 401.477 334.633C431.091 329.438 439.726 313.587 434.62 279H380.058C371.145 281.561 324.826 300.985 300.793 311.317C284.887 318.155 289.901 342.805 298.909 349.22C298.958 349.613 299.12 349.881 299.409 350C347.863 370.083 386.195 359.546 399 362.913L404.923 344.229L385.717 337.641Z" fill="#2B44FF"/>
<path fill-rule="evenodd" clip-rule="evenodd" d="M422.092 349.694C425.267 349.998 427.521 350.475 428.853 351.125C430.474 351.915 432.707 353.339 435.554 355.395C434.636 357.275 426.395 374.173 410.829 406.089C405.831 405.282 403.851 403.375 404.888 400.367C405.925 397.36 406.761 394.849 407.397 392.835L408.385 364.15C408.404 363.598 408.867 363.166 409.419 363.185C409.428 363.185 409.438 363.186 409.447 363.186L413.86 363.464C416.367 361.434 418.021 359.598 418.823 357.955C419.474 356.621 419.833 354.515 419.902 351.637L419.902 351.637C419.929 350.533 420.846 349.659 421.95 349.686C421.997 349.687 422.045 349.69 422.092 349.694Z" fill="#E4E4E4"/>
<path fill-rule="evenodd" clip-rule="evenodd" d="M283.322 436.402C284.441 439.389 285 441.623 285 443.106C285 444.909 284.7 447.541 284.099 451C282.007 451 263.206 451 227.697 451C226.231 446.155 227.077 443.539 230.235 443.153C233.393 442.766 236.016 442.417 238.105 442.106L264.32 430.419C264.824 430.194 265.416 430.421 265.641 430.925C265.644 430.934 265.648 430.943 265.652 430.951L267.337 435.039C270.26 436.403 272.636 437.085 274.463 437.085C275.948 437.085 277.999 436.485 280.616 435.286L280.616 435.286C281.62 434.825 282.807 435.266 283.267 436.27C283.287 436.314 283.305 436.358 283.322 436.402Z" fill="#E4E4E4"/>
<path fill-rule="evenodd" clip-rule="evenodd" d="M332.956 263.123L304.628 290.758C296.385 294.274 289.632 298.156 284.367 302.404C283.183 303.832 281.894 306.569 287.465 305.344C293.035 304.12 298.949 303.082 299.996 304.894C301.043 306.705 297.958 309.481 299.893 311.852C301.183 313.433 305.521 308.405 312.907 296.77L342.364 279.403L332.956 263.123ZM458.692 267.02L437.795 267.102C450.698 308.756 457.664 330.857 458.692 333.406C461.006 339.14 456.109 347.874 454.015 352.567C460.835 355.619 460.109 344.317 468.712 348.32C476.565 351.973 482.538 358.593 491.611 352.995C492.726 352.306 493.949 349.715 490.995 347.69C483.638 342.645 473.035 333.815 471.602 330.909C469.648 326.945 465.345 305.649 458.692 267.02Z" fill="#B28B67"/>
<path fill-rule="evenodd" clip-rule="evenodd" d="M399.305 179.332L390.658 177.849C375.77 215.039 349.778 248.831 312.681 279.225L340.713 313.282C377.806 270.005 400.67 225.355 399.305 179.332Z" fill="#191847"/>
<path fill-rule="evenodd" clip-rule="evenodd" d="M437 288H360C377.839 244.625 386.759 207.779 386.759 177.461L409.986 174C428.24 203.359 433.395 239.505 437 288Z" fill="#DDE3E9"/>
<path fill-rule="evenodd" clip-rule="evenodd" d="M410.478 174.017C410.475 174.011 410.471 174.006 410.468 174H408.952C407.138 174.063 404.375 174.175 400.662 174.338L395.05 190.377C394.456 209.933 390.989 249.342 384.649 308.606H435.124C434.992 312.699 434.773 316.831 434.469 321H472C466.386 257.664 445.885 208.664 410.496 174L410.478 174.017V174.017Z" fill="#2F3676"/>
<path fill-rule="evenodd" clip-rule="evenodd" d="M431.79 256.233C430.353 281.748 426.757 299.337 421 309H435.111C435.729 290.643 434.622 273.054 431.79 256.233V256.233Z" fill="black" fill-opacity="0.1"/>
<path fill-rule="evenodd" clip-rule="evenodd" d="M423.889 278L399 266.43V278H423.889Z" fill="white" fill-opacity="0.2"/>
<path fill-rule="evenodd" clip-rule="evenodd" d="M151.443 60.7414C148.262 54.049 146.909 46.5299 149.439 39.1885C156.728 18.0359 185.467 30.8193 188.389 43.2641C191.311 55.7089 183.222 83.1226 175.156 83.0457C171.94 83.0151 166.039 79.3979 160.57 73.7182L156.902 103.783L132.726 97.3045L151.443 60.7414Z" fill="#D4A181"/>
<path fill-rule="evenodd" clip-rule="evenodd" d="M160.217 61.4676C155.677 66.419 150.37 69.6416 146.227 68.5317C138.359 66.4234 135.583 54.4048 138.614 43.0944C138.72 42.697 138.834 42.3044 138.954 41.9168C129.101 45.3981 119.67 54.9375 108.657 51.9866C93.6738 47.9719 95.8211 16.1567 116.754 21.7658C130.991 25.5804 137.437 29.5324 142.65 34.2189C144.739 31.1822 147.31 28.8473 150.058 27.4718C150.752 27.0138 151.725 26.6581 152.924 26.4079C153.664 26.2277 154.409 26.119 155.154 26.0865C159.152 25.7242 164.677 26.1934 170.62 27.5656C171.73 27.8219 172.813 28.1 173.863 28.3965C175.367 22.8522 181.074 19.566 186.627 21.0539C192.191 22.5446 195.492 28.2632 194.002 33.8267C192.56 39.2071 187.164 42.472 181.778 41.3327C178.49 41.4561 174.403 41.0985 169.997 40.2291C169.994 41.9218 169.741 43.7782 169.198 45.8068C168.718 47.598 168.011 49.4447 167.13 51.2761C166.491 49.9088 165.431 48.8445 164.157 48.5031C160.593 47.5482 157.327 49.8151 156.493 52.9277C155.435 56.8781 156.949 60.347 160.217 61.4676Z" fill="#191847"/>
<path fill-rule="evenodd" clip-rule="evenodd" d="M101.887 189.498L140.09 321.14L158.058 419.978H176.093L158.09 189.498H101.887Z" fill="#BA8B72"/>
<path fill-rule="evenodd" clip-rule="evenodd" d="M84.7189 189.498C87.3845 257.885 86.3332 295.185 85.7366 301.399C85.14 307.612 81.7531 349.224 58.6736 422.064H77.4314C107.996 352.187 118.666 310.574 122.172 301.399C125.678 292.223 136.031 254.923 151.147 189.498H84.7189Z" fill="#D4A181"/>
<path fill-rule="evenodd" clip-rule="evenodd" d="M101.067 189.498C111.004 234.796 128.191 307.104 152.627 406.42H179.005C180.954 304.481 172.666 237.388 158.313 189.498H101.067Z" fill="#69A1AC"/>
<path fill-rule="evenodd" clip-rule="evenodd" d="M84.5857 189.498C87.1963 257.885 80.4307 325.259 59.4734 407.485H87.6173C118.239 338.651 140.186 271.609 155.185 189.498H84.5857Z" fill="#89C5CC"/>
<path fill-rule="evenodd" clip-rule="evenodd" d="M56 435.622L57.035 418.935C63.0947 420.708 70.6847 420.012 79.8048 416.849C89.6112 423.796 101.956 428.539 116.84 431.079C117.975 431.273 118.739 432.35 118.545 433.486C118.532 433.559 118.516 433.632 118.495 433.704L117.065 438.75H79.8048H58.07L56 435.622Z" fill="#191847"/>
<path fill-rule="evenodd" clip-rule="evenodd" d="M154.032 435.622L155.067 418.935C161.127 420.708 168.717 420.012 177.837 416.849C187.643 423.796 199.988 428.539 214.872 431.079C216.007 431.273 216.771 432.35 216.577 433.486C216.565 433.559 216.548 433.632 216.528 433.704L215.097 438.75H177.837H156.102L154.032 435.622Z" fill="#191847"/>
<path fill-rule="evenodd" clip-rule="evenodd" d="M176.508 130.87L215.599 117.631C222.769 111.637 229.574 107.2 236.014 104.319C237.902 103.895 241.055 103.993 237.279 108.589C233.504 113.186 229.74 118.19 230.928 120.021C232.115 121.851 236.155 120.299 237.442 123.219C238.3 125.166 231.575 126.817 217.266 128.171L187.181 147.321L176.508 130.87ZM229.436 157.189L246.611 151.347C250.283 143.374 253.651 139.631 256.716 140.117C259.256 139.439 253.305 149.283 257.917 149.151C262.528 149.02 274.814 142.857 276.396 144.827C278.737 147.742 274.954 154.757 271.392 157.95C264.734 163.919 259.816 165.494 248.143 166.634C242.041 167.23 235.178 169.372 227.557 173.06L229.436 157.189Z" fill="#D4A181"/>
<path fill-rule="evenodd" clip-rule="evenodd" d="M159.914 123.46C172.423 125.529 189.539 125.828 209.294 117.683L213.528 134.473C199.128 144.475 180.135 151.429 165.143 148.349C153.328 145.922 149.792 130.49 159.914 123.46Z" fill="black"/>
<path fill-rule="evenodd" clip-rule="evenodd" d="M172.327 151.377C185 157.021 207.917 157.042 241.077 151.44C245.993 168.817 247.559 180.863 245.772 187.579C216.539 196.841 192.498 199.03 173.524 196.108C172.148 207.43 168.901 217.86 162.596 226.803C149.633 245.187 97.7032 216.888 78.4978 217.269C73.5304 177.471 98.7099 166.092 102.987 141.942C107.671 115.494 136.089 78.5244 139.214 79.0754L167.711 84.1003C165.722 104.579 169.71 128.237 172.327 151.377Z" fill="black"/>
</svg>
