<svg width="10" height="10" viewBox="0 0 10 10" fill="none" xmlns="http://www.w3.org/2000/svg">
<path d="M8.05157 8.96044C7.83251 8.94292 7.64194 8.82881 7.51011 8.66082C7.37828 8.49283 7.30598 8.27093 7.3241 8.03446L7.62578 4.04494L1.81395 9.37566C1.47873 9.68313 0.994238 9.62263 0.724629 9.27907C0.45502 8.93551 0.449625 8.37216 0.785033 8.06452L6.59687 2.73379L2.90746 2.40532C2.46963 2.3665 2.14407 1.95164 2.17998 1.4783C2.21589 1.00495 2.59962 0.652991 3.03745 0.691813L8.64168 1.18873C9.07951 1.22755 9.40506 1.64241 9.36916 2.11575L8.90952 8.17457C8.87218 8.64816 8.4894 8.99926 8.05157 8.96044Z" fill="black"/>
</svg>
